<?xml version="1.0" encoding="utf-8"?>
<!-- Generator: Adobe Illustrator 19.0.0, SVG Export Plug-In . SVG Version: 6.00 Build 0)  -->
<svg version="1.1" id="logoimg" xmlns="http://www.w3.org/2000/svg" xmlns:xlink="http://www.w3.org/1999/xlink" x="0px" y="0px"
	 viewBox="-1129 554 300 300" style="enable-background:new -1129 554 300 300;" xml:space="preserve">
<style type="text/css">
	.st0{fill:#F15F62;stroke:#F15F62;stroke-width:5;}
	.st1{fill:#344082;}
	.st2{fill:#F15F62;}
</style>
<ellipse class="st0" cx="-1066" cy="700.5" rx="30" ry="30.5"/>
<ellipse class="st0" cx="-1066" cy="774.5" rx="30" ry="30.5"/>
<g>
	<g>
		<path class="st1" d="M-1065.7,826.8c-27.9,0-49.9-22.3-50.4-51l0,0l0-1.1c0-17.2,7.6-32.7,20.4-42.2c-8.8-8.4-14-20.5-14-32.9
			c0-12,4.9-23.4,13.5-31.8c-4.7-5.9-8-13.8-9.6-22.6l-8.1-47.2c-3.5-20.3,3.9-37.9,16.8-40.3c0.9-0.2,1.8-0.2,2.8-0.2
			c11.9,0,23.4,13.8,26.5,32.2l2,11.4l1.9-10.9c3.2-18.3,14.6-32,26.5-32c0.8,0,1.7,0.1,2.5,0.2h0l0.2,0c12.9,2.3,20.3,19.9,16.8,40
			l-8.1,47c-1.5,8.6-4.8,16.3-9.4,22.2c8.8,8.5,13.8,20.1,13.8,32.3c0,12.4-5.2,24.3-14,32.7c12.8,9.3,20.3,24.9,20.3,42.2
			C-1015.3,804-1037.5,826.8-1065.7,826.8z M-1066,744.5c-16.1,0-28.7,13.3-28.7,30.2c0,16.8,12.7,30,28.9,30s28.9-13.2,28.9-30
			C-1036.8,757.8-1049.6,744.5-1066,744.5z M-1066,677.1c-12.1,0-22.4,10.5-22.4,23c0,12.2,10.4,22.5,22.8,22.5
			c12.1,0,22.4-10.6,22.4-23.2v-0.7C-1043.5,687-1053.8,677.1-1066,677.1z M-1039,582.4c-1.5,2.3-3.2,6-4.2,11.4l-8.2,47
			c-0.9,5.2-0.5,9.5,0.2,12.4c1.6-2.5,3.3-6.3,4.2-11.4l8.3-47.7C-1037.9,589.2-1038.3,585.2-1039,582.4z M-1093,581.9
			c-0.7,3.1-1,7.4-0.1,12.4l8.1,47.3c0.9,5,2.5,8.8,4.1,11.3c0.7-3,1.1-7.2,0.2-12.4l-8.1-47.2
			C-1089.7,588.3-1091.4,584.5-1093,581.9z"/>
		<path class="st2" d="M-1094.4,560c10.7,0,21.1,13,24.1,30.1l4.4,25.7l4.4-25.2c3-17.4,13.5-29.9,24.1-29.9c0.8,0,1.6,0.1,2.3,0.2
			h0c11.5,2.1,17.9,18.9,14.8,37.1l-8.1,47c-1.6,9.3-5.5,17.4-10.4,22.8c9,7.8,14.8,19.3,14.8,32.1c0,13.3-6.3,25.5-15.6,32.9
			c15.1,9.5,21.9,26.2,21.9,41.9c0,27.7-21.2,49.6-47.9,49.6c-26.4,0-47.9-21.6-47.9-49.6l0,0c0-16.5,7.5-32.7,21.9-41.9
			c-9.7-7.9-15.6-20.3-15.6-33.2c0-12.7,5.7-24,14.5-31.6c-5-5.4-8.9-13.7-10.6-23.2l-8.1-47.2c-3.2-18.8,3.5-35.3,14.8-37.4
			C-1096,560.1-1095.2,560-1094.4,560 M-1080,658L-1080,658c1.5-2.7,3.3-9.2,1.8-17.9l-8.1-47.2c-1.5-8.4-5.1-13.8-7.4-15.9
			c-1.5,2.6-3.3,8.8-1.8,17.8l8.1,47.3C-1086,650.5-1082.3,655.9-1080,658 M-1052,658.1c2.3-2,6-7.4,7.5-15.8l8.1-47l0,0
			c1.5-8.6-0.3-15.1-1.8-17.7c-2.2,1.9-6,7-7.5,15.9l-8.2,47C-1055.3,649-1053.5,655.5-1052,658.1 M-1065.5,725.1
			c14,0,24.9-12.4,24.9-25.7l0,0c0-14-12.2-24.8-25.3-24.8c-13.6,0-24.9,11.7-24.9,25.5C-1090.8,714.3-1078.6,725.1-1065.5,725.1
			 M-1065.8,807.2c17.2,0,31.4-13.7,31.4-32.5v0c0-18.7-14.2-32.7-31.6-32.7c-17.6,0-31.2,14.6-31.2,32.7
			C-1097.2,793.2-1082.9,807.2-1065.8,807.2 M-1094.4,555c-1.1,0-2.2,0.1-3.2,0.3c-14.3,2.6-22.5,21.5-18.8,43.1l8.1,47.2
			c1.4,8.3,4.5,15.9,8.7,21.9c-8.1,8.7-12.7,20.1-12.7,32c0,12.1,4.7,24,12.8,32.7c-12.1,10.1-19.1,25.5-19.1,42.4v2.1l0.1,0.1
			c0.5,14,5.9,26.9,15.4,36.7c9.9,10.2,23.2,15.8,37.4,15.8c14.3,0,27.6-5.7,37.5-15.9c9.9-10.2,15.4-24,15.4-38.7
			c0-17.1-7-32.5-19.1-42.4c8.1-8.6,12.7-20.4,12.7-32.4c0-12.1-4.7-23.7-13-32.5c4.2-5.9,7.1-13.4,8.6-21.5l8.1-47
			c3.7-21.5-4.6-40.3-18.8-42.9l-0.4-0.1h-0.1c-0.9-0.1-1.8-0.2-2.7-0.2c-12.7,0-24.3,12.9-28.4,31.1c-1.8-8.1-5.2-15.6-9.7-21.3
			C-1081,558.7-1087.7,555-1094.4,555L-1094.4,555z M-1065.5,720.1c-12.1,0-20.3-10.4-20.3-20c0-11.1,9.1-20.5,19.9-20.5
			c5.1,0,10.3,2.1,14.1,5.8c3.9,3.7,6,8.4,6.2,13.5l0,0.5C-1045.7,710.6-1054.8,720.1-1065.5,720.1L-1065.5,720.1z M-1065.8,802.2
			c-14.8,0-26.4-12.1-26.4-27.5c0-15.5,11.5-27.7,26.2-27.7c14.9,0,26.6,12.2,26.6,27.7C-1039.3,790.1-1050.9,802.2-1065.8,802.2
			L-1065.8,802.2z"/>
	</g>
	<g>
		<path class="st1" d="M-1065.7,804.1c-6.4,0-10.8-5.7-10.8-11.1V792l0.1-0.1c0.6-5.5,5.2-9.9,10.7-9.9c5.8,0,10.7,5.1,10.7,11.1
			S-1059.9,804.1-1065.7,804.1z"/>
		<path class="st2" d="M-1065.7,784.5c4.5,0,8.2,4,8.2,8.6c0,4.9-4.1,8.6-8.2,8.6c-4.9,0-8.3-4.4-8.3-8.6l0,0
			C-1074,788.1-1069.9,784.5-1065.7,784.5 M-1065.7,779.5c-6.4,0-12,5-13.1,11.3l-0.2,0.2l0,2.1c0,6.6,5.3,13.6,13.3,13.6
			c7.2,0,13.2-6.2,13.2-13.6C-1052.5,785.7-1058.6,779.5-1065.7,779.5L-1065.7,779.5z"/>
	</g>
	<g>
		<path class="st1" d="M-923.9,849.6c-0.5,0-1.1,0-1.6,0c-13.9-0.5-24.9-8.3-30-21.4c-0.3-0.7-0.5-1.3-0.6-1.9
			c-23.3-4.8-40-25.8-40-50.6v-69c0-15.9,7-30.8,19-40.6c-12.5-9.7-19.9-24.6-19.9-40.6v-13.8c0-0.9,0-1.8,0.1-2.8
			c0-0.2-0.1-0.3-0.1-0.5l0-0.1l0.3-43.4l0-0.1c0.1-1.2,0.4-2.1,0.9-2.9c0.5-1.3,1.5-2,2.3-2.5c1.2-0.7,2.4-1.1,3.6-1.1
			c1,0,2.1,0.3,3.1,0.8l16.2,7.7c7.5-4.1,15.9-6.3,24.5-6.3c8.4,0,16.7,2.1,23.9,5.9l16.9-7.4c1-0.5,2-0.8,3-0.8
			c1.2,0,2.4,0.4,3.5,1.1c0.8,0.5,1.8,1.2,2.3,2.5c0.4,0.7,0.7,1.6,0.9,2.8l0,0.2l0.3,46.8v13.8c0,16-7.4,30.9-19.9,40.6
			c12,9.8,19,24.7,19,40.6v69c0,22.5-14.5,42.6-34.9,49.3c1.7,1.3,3.8,2,6.6,2.1c0.1,0,0.2,0,0.3,0c3.3,0,7.5-2.4,12.2-5.2
			c8.2-4.7,18.3-10.6,33-10.6c13.6,0,24.3,6.8,31.8,20.2l0,0.1c1,1.9,1.4,3.6,1.4,5.4c0,6.1-5.2,11.3-11.3,11.3
			c-4.2,0-8.3-2.5-10.2-6.1c-3.1-5.9-6.5-8.3-11.8-8.3c-6.1,0-12,3.3-18.3,6.9C-904.9,844.8-913.5,849.6-923.9,849.6z"/>
		<path class="st2" d="M-902.4,560.7c0.7,0,1.5,0.2,2.2,0.7c0.7,0.4,1.2,0.9,1.4,1.6c0.4,0.5,0.5,1.3,0.6,2l0.3,46.3
			c0,0,0-0.1,0-0.1c0-0.5,0-1.1,0-1.6c0,0.5,0,1.1,0,1.6c0,0,0,0.1,0,0.1l0,0.3c0,0,0,0,0,0.1c0,0,0,0,0-0.1l0,0.1v0v13.8
			c0,17.2-8.7,31.9-21.6,40.5c12.6,8.9,20.7,23.9,20.7,40.6v69c0,23.1-15.6,42.8-36.8,47.9c2.3,3.9,5.9,5.8,10.8,6
			c0.1,0,0.3,0,0.4,0c10.1,0,22-15.8,45.2-15.8c12.9,0,22.6,6.3,29.6,18.9c0.7,1.3,1.1,2.7,1.1,4.3c0,4.7-4.1,8.8-8.8,8.8
			c-3.4,0-6.6-2-7.9-4.7c-3.6-7-7.9-9.7-14-9.7c-14.3,0-26.5,15.8-44.8,15.8c-0.5,0-1,0-1.5,0c-13.1-0.5-23-7.7-27.8-19.9
			c-0.5-1.1-0.7-2-0.7-3.1c-22.9-3.8-39.8-24.3-39.8-48.5v-69c0-17,8.2-31.8,20.7-40.6c-13.2-8.9-21.6-24.1-21.6-40.6v0v-13.8
			c0-1.1,0-2.2,0.1-3.2c-0.1-0.1-0.1-0.2-0.1-0.3l0.3-43.1c0.1-0.7,0.3-1.5,0.6-2c0.2-0.7,0.8-1.1,1.4-1.6c0.8-0.5,1.5-0.7,2.2-0.7
			c0.6,0,1.3,0.2,1.9,0.5l17.5,8.3c7.1-4.2,15.4-6.6,24.4-6.6c8.8,0,16.9,2.3,23.8,6.2l18.1-7.9C-903.7,560.8-903,560.7-902.4,560.7
			 M-898.5,603.4C-898.5,603.4-898.5,603.4-898.5,603.4C-898.5,603.4-898.5,603.4-898.5,603.4C-898.5,603.4-898.5,603.3-898.5,603.4
			C-898.5,603.3-898.5,603.4-898.5,603.4 M-898.2,605.5c0,0.2,0,0.3,0.1,0.5C-898.2,605.8-898.2,605.6-898.2,605.5
			c0-0.2,0-0.4-0.1-0.6C-898.3,605.1-898.2,605.3-898.2,605.5 M-897.9,608.2c0,0.2,0,0.4,0,0.6
			C-897.9,608.6-897.9,608.4-897.9,608.2c0-0.3,0-0.6-0.1-0.9C-898,607.6-898,607.9-897.9,608.2 M-897.8,611.2c0,0.1,0,0.2,0,0.3
			l0,0C-897.8,611.4-897.8,611.3-897.8,611.2L-897.8,611.2 M-902.4,555.7C-902.4,555.7-902.4,555.7-902.4,555.7
			c-1.4,0-2.7,0.3-4.1,1l-15.7,6.9c-7.4-3.7-15.6-5.7-24-5.7c-8.6,0-17,2.1-24.5,6l-15.1-7.2c-1.3-0.7-2.7-1-4.1-1
			c-1.7,0-3.3,0.5-4.9,1.5c-1,0.7-2.4,1.7-3.3,3.5c-0.6,1-1,2.2-1.1,3.7l0,0.3l0,0.3l-0.3,43.1l0,0.2l0,0.2c0,0.2,0,0.4,0.1,0.5
			c-0.1,0.9-0.1,1.8-0.1,2.6v13.8c0,15.7,6.8,30.5,18.5,40.7c-11.1,10.2-17.6,24.9-17.6,40.5v69c0,12.8,4.4,25.3,12.5,35.1
			c7.3,8.9,17.2,15.1,28.1,17.7c0.1,0.2,0.2,0.5,0.3,0.7c5.5,14.1,17.2,22.5,32.2,23c0.6,0,1.1,0,1.7,0c11.1,0,19.9-4.9,27.7-9.3
			c6.3-3.5,11.7-6.5,17.1-6.5c3.7,0,6.5,1.2,9.6,7c2.3,4.5,7.2,7.5,12.4,7.5c7.5,0,13.8-6.3,13.8-13.8c0-2.2-0.5-4.3-1.7-6.5l0-0.1
			l-0.1-0.1c-7.9-14.3-19.4-21.5-34-21.5c-15.3,0-26.3,6.3-34.2,11c-4.1,2.4-7.7,4.5-10.3,4.8c7.1-3.5,13.4-8.7,18.4-15.1
			c7.4-9.6,11.5-21.6,11.5-33.8v-69c0-15.6-6.5-30.3-17.7-40.5c11.7-10.1,18.6-24.9,18.6-40.7v-13.8l0-0.1l0-0.3l-0.7,0l-2.8,0
			l-0.1,0l2.3,0l1.3,0l-0.3-46.3l0-0.3l0-0.3c-0.2-1.5-0.6-2.7-1.1-3.6c-1-2-2.6-3.1-3.2-3.5C-899.1,556.2-900.7,555.7-902.4,555.7
			L-902.4,555.7L-902.4,555.7z"/>
	</g>
</g>
</svg>
